<mxfile host="app.diagrams.net" modified="2023-02-17T00:09:40.439Z" agent="5.0 (Windows NT 10.0; Win64; x64) AppleWebKit/537.36 (KHTML, like Gecko) Chrome/110.0.0.0 Safari/537.36" etag="dxduKqAQmN-hreEhC_lb" version="20.8.20" type="github">
  <diagram name="Page-1" id="DdXBMfR7fsQA4sm28C2N">
    <mxGraphModel dx="1221" dy="751" grid="1" gridSize="10" guides="1" tooltips="1" connect="1" arrows="1" fold="1" page="1" pageScale="1" pageWidth="850" pageHeight="1100" math="0" shadow="0">
      <root>
        <mxCell id="0" />
        <mxCell id="1" parent="0" />
        <mxCell id="TAGmmweaD-kp1vJ4mzty-9" style="edgeStyle=orthogonalEdgeStyle;rounded=0;orthogonalLoop=1;jettySize=auto;html=1;" edge="1" parent="1" source="TAGmmweaD-kp1vJ4mzty-5" target="TAGmmweaD-kp1vJ4mzty-6">
          <mxGeometry relative="1" as="geometry" />
        </mxCell>
        <mxCell id="TAGmmweaD-kp1vJ4mzty-5" value="MATLAB" style="shape=cube;whiteSpace=wrap;html=1;boundedLbl=1;backgroundOutline=1;darkOpacity=0.05;darkOpacity2=0.1;" vertex="1" parent="1">
          <mxGeometry x="90" y="320" width="120" height="80" as="geometry" />
        </mxCell>
        <mxCell id="TAGmmweaD-kp1vJ4mzty-10" style="edgeStyle=orthogonalEdgeStyle;rounded=0;orthogonalLoop=1;jettySize=auto;html=1;" edge="1" parent="1" source="TAGmmweaD-kp1vJ4mzty-6" target="TAGmmweaD-kp1vJ4mzty-7">
          <mxGeometry relative="1" as="geometry" />
        </mxCell>
        <mxCell id="TAGmmweaD-kp1vJ4mzty-12" style="edgeStyle=orthogonalEdgeStyle;rounded=0;orthogonalLoop=1;jettySize=auto;html=1;" edge="1" parent="1" source="TAGmmweaD-kp1vJ4mzty-6" target="TAGmmweaD-kp1vJ4mzty-11">
          <mxGeometry relative="1" as="geometry" />
        </mxCell>
        <mxCell id="TAGmmweaD-kp1vJ4mzty-6" value="System" style="shape=cube;whiteSpace=wrap;html=1;boundedLbl=1;backgroundOutline=1;darkOpacity=0.05;darkOpacity2=0.1;" vertex="1" parent="1">
          <mxGeometry x="320" y="320" width="120" height="80" as="geometry" />
        </mxCell>
        <mxCell id="TAGmmweaD-kp1vJ4mzty-7" value="channel n" style="shape=cube;whiteSpace=wrap;html=1;boundedLbl=1;backgroundOutline=1;darkOpacity=0.05;darkOpacity2=0.1;" vertex="1" parent="1">
          <mxGeometry x="550" y="400" width="120" height="80" as="geometry" />
        </mxCell>
        <mxCell id="TAGmmweaD-kp1vJ4mzty-11" value="" style="shape=cube;whiteSpace=wrap;html=1;boundedLbl=1;backgroundOutline=1;darkOpacity=0.05;darkOpacity2=0.1;" vertex="1" parent="1">
          <mxGeometry x="550" y="240" width="120" height="80" as="geometry" />
        </mxCell>
      </root>
    </mxGraphModel>
  </diagram>
</mxfile>
